# xmcd
#
# Track frame offsets: 
#        150
#        14764
#        28047
#        40712
#        55691
#        70606
#        84930
#        99097
#        113123
#        127559
#        143554
#        165802
#        177085
#        191189
#        203446
#        217689
#        232182
#        248274
#        261677
#        274521
#
# Disc length: 3835 seconds
#
# Revision: 1
# Processed by: cddbd v1.5.2PL0 Copyright (c) Steve Scherf et al.
# Submitted via: ExactAudioCopy v1.0b3
#
DISCID=f50ef914
DTITLE=Various Artist - Late Night Jazz
DYEAR=2008
DGENRE=Jazz
TTITLE0=Sinatra, Frank - Sweet Lorraine
TTITLE1=Holliday, Billie - You Go To My Head
TTITLE2=Cole, Nat King - Laura
TTITLE3=Fitzgerald, Ella - But Not For Me
TTITLE4=Shearing, George - September In The Rain
TTITLE5=Eckstine, Billy with Earl Hines - Skylark
TTITLE6=Sinatra, Frank - One For Me Baby
TTITLE7=Vaughan, Sarah with Teddy Wilson - September Song
TTITLE8=Hawkins, Coleman - April In Paris
TTITLE9=Horne, Lena with Teddy Wilson - Out Of Nowhere
TTITLE10=Cole, Nat King with Lester Young - I Can't Get Started
TTITLE11=Wiley, Lee with Joe Bushkin and Buddy Hackett - Any Time, Any
TTITLE11=Day, Anywhere
TTITLE12=Holliday, Billy with Teddy Wilson - I'll Never Be The Same
TTITLE13=Eckstine, Billy with George Shearing - Taking A Chance On Lov
TTITLE13=e
TTITLE14=Ella Fitzgerald and Louis Armstrong - Dream A Little Dream Of M
TTITLE14=e
TTITLE15=Lee, Peggy with Benny Goodman - My Old Flame
TTITLE16=Vaughan, Sarah with Dizzy Gillespie - Lover Man, Oh Where Can
TTITLE16=You Be
TTITLE17=Boswell, Connie with Woody Herman - Deep In A Dream
TTITLE18=Getz, Stan - Yesterdays
TTITLE19=Cole, Nat King - No Moon At All
EXTD=YEAR: 2008
EXTT0=
EXTT1=
EXTT2=
EXTT3=
EXTT4=
EXTT5=
EXTT6=
EXTT7=
EXTT8=
EXTT9=
EXTT10=
EXTT11=
EXTT12=
EXTT13=
EXTT14=
EXTT15=
EXTT16=
EXTT17=
EXTT18=
EXTT19=
PLAYORDER=
